<svg width="100" height="100" viewBox="0 0 100 100" fill="none" xmlns="http://www.w3.org/2000/svg">
<path d="M93.7499 35.3702C93.7525 34.4101 93.5053 33.4659 93.0326 32.6302C92.5598 31.7946 91.8779 31.0963 91.0536 30.604C90.2294 30.1116 89.2913 29.8422 88.3314 29.8221C87.3715 29.802 86.4229 30.0319 85.5788 30.4893C84.7347 30.9467 84.0241 31.6159 83.5168 32.431C83.0095 33.2461 82.723 34.1792 82.6854 35.1385C82.6478 36.0979 82.8604 37.0505 83.3024 37.9028C83.7443 38.7551 84.4004 39.4778 85.2061 39.9999C81.6624 45.778 78.2405 48.6718 75.214 48.3265C70.7343 47.8046 66.8343 40.4093 64.6202 33.6296C65.7999 33.1616 66.7824 32.3017 67.4027 31.1945C68.0231 30.0873 68.2433 28.8004 68.0264 27.5499C67.8096 26.2995 67.1688 25.1618 66.2119 24.3282C65.255 23.4945 64.0403 23.0157 62.772 22.9722C61.5036 22.9288 60.2589 23.3233 59.2472 24.0894C58.2355 24.8556 57.5183 25.9467 57.2164 27.1794C56.9144 28.4121 57.046 29.7111 57.589 30.8581C58.1321 32.0052 59.0535 32.9303 60.1983 33.478C51.6139 56.7874 44.9218 49.914 38.4905 33.4749C39.6268 32.9259 40.5404 32.0036 41.0785 30.8621C41.6167 29.7206 41.7469 28.4291 41.4474 27.2031C41.1479 25.9772 40.4368 24.8911 39.433 24.1264C38.4291 23.3616 37.1932 22.9644 35.9318 23.0012C34.6703 23.038 33.4597 23.5064 32.5021 24.3284C31.5444 25.1503 30.8978 26.2759 30.6703 27.5172C30.4427 28.7585 30.6479 30.0403 31.2516 31.1485C31.8553 32.2567 32.821 33.1242 33.9874 33.6061C30.3421 43.3186 26.5202 48.6593 22.7452 48.7327C19.4483 48.7327 16.1405 44.3796 13.9686 40.0343C15.1817 39.5181 16.1713 38.5867 16.76 37.4071C17.3487 36.2275 17.498 34.8768 17.1812 33.5971C16.8643 32.3174 16.102 31.1924 15.031 30.4237C13.9599 29.6551 12.65 29.293 11.3362 29.4025C10.0224 29.512 8.7906 30.0858 7.86152 31.0212C6.93244 31.9565 6.36687 33.1922 6.2662 34.5067C6.16553 35.8212 6.53635 37.1285 7.31217 38.1944C8.08799 39.2603 9.21809 40.0151 10.4999 40.3233L18.628 64.6608V75.4702C18.628 75.8846 18.7926 76.282 19.0857 76.5751C19.3787 76.8681 19.7761 77.0327 20.1905 77.0327H78.9499C79.3643 77.0327 79.7617 76.8681 80.0547 76.5751C80.3478 76.282 80.5124 75.8846 80.5124 75.4702V64.6546L88.7077 40.853C90.0811 40.7333 91.36 40.1041 92.293 39.0893C93.2261 38.0744 93.7457 36.7488 93.7499 35.3702ZM88.2171 32.9624C88.8557 32.9624 89.4681 33.2161 89.9197 33.6676C90.3712 34.1192 90.6249 34.7316 90.6249 35.3702C90.6249 36.0088 90.3712 36.6212 89.9197 37.0728C89.4681 37.5243 88.8557 37.778 88.2171 37.778C87.5785 37.778 86.966 37.5243 86.5145 37.0728C86.0629 36.6212 85.8093 36.0088 85.8093 35.3702C85.8093 34.7316 86.0629 34.1192 86.5145 33.6676C86.966 33.2161 87.5785 32.9624 88.2171 32.9624ZM62.5718 26.0921C63.2104 26.0921 63.8228 26.3458 64.2743 26.7973C64.7259 27.2489 64.9796 27.8613 64.9796 28.4999C64.9796 29.1385 64.7259 29.7509 64.2743 30.2025C63.8228 30.654 63.2104 30.9077 62.5718 30.9077C61.9332 30.9077 61.3207 30.654 60.8692 30.2025C60.4176 29.7509 60.164 29.1385 60.164 28.4999C60.164 27.8613 60.4176 27.2489 60.8692 26.7973C61.3207 26.3458 61.9332 26.0921 62.5718 26.0921ZM36.114 26.0921C36.7525 26.0921 37.365 26.3458 37.8165 26.7973C38.2681 27.2489 38.5218 27.8613 38.5218 28.4999C38.5218 29.1385 38.2681 29.7509 37.8165 30.2025C37.365 30.654 36.7525 30.9077 36.114 30.9077C35.4754 30.9077 34.8629 30.654 34.4114 30.2025C33.9598 29.7509 33.7061 29.1385 33.7061 28.4999C33.7061 27.8613 33.9598 27.2489 34.4114 26.7973C34.8629 26.3458 35.4754 26.0921 36.114 26.0921ZM22.7327 51.8577C27.8921 51.7827 32.1327 46.7374 36.2577 36.4093C38.5733 42.3046 43.2171 51.6249 49.5343 51.6296C54.2265 51.6296 58.4389 46.6983 62.3624 36.6233C65.4061 45.5327 73.2827 57.4624 82.9124 48.089L77.8358 62.8327H21.3124L16.7858 49.278C18.3806 50.8442 20.4995 51.7634 22.7327 51.8577ZM9.37489 34.9561C9.37489 34.3173 9.62865 33.7047 10.0803 33.253C10.532 32.8013 11.1447 32.5475 11.7835 32.5475C12.4223 32.5475 13.0349 32.8013 13.4866 33.253C13.9383 33.7047 14.1921 34.3173 14.1921 34.9561C14.1921 35.5949 13.9383 36.2076 13.4866 36.6593C13.0349 37.111 12.4223 37.3647 11.7835 37.3647C11.1447 37.3647 10.532 37.111 10.0803 36.6593C9.62865 36.2076 9.37489 35.5949 9.37489 34.9561ZM77.3874 73.9077H21.753V65.9577H77.3874V73.9077Z" fill="black"/>
</svg>
