<svg width="512" height="512" viewBox="0 0 512 512" fill="none" xmlns="http://www.w3.org/2000/svg">
<g clip-path="url(#clip0_158_44)">
<path d="M335.2 176.8C328.943 170.544 318.816 170.544 312.576 176.8L256 233.376L199.424 176.8C193.168 170.544 183.04 170.544 176.8 176.8C170.544 183.056 170.544 193.184 176.8 199.424L233.376 256L176.8 312.576C170.544 318.832 170.544 328.96 176.8 335.2C183.056 341.456 193.184 341.456 199.424 335.2L256 278.624L312.576 335.183C318.832 341.44 328.96 341.44 335.2 335.183C341.456 328.927 341.456 318.799 335.2 312.559L278.624 256L335.2 199.44C341.44 193.184 341.44 183.056 335.2 176.8ZM448 0H64C28.6561 0 0 28.6561 0 64V448C0 483.344 28.6561 512 64 512H448C483.344 512 512 483.344 512 448V64C512 28.6561 483.344 0 448 0ZM480 448C480 465.68 465.68 480 448 480H64C46.3201 480 32 465.68 32 448V64C32 46.3201 46.3201 32 64 32H448C465.68 32 480 46.336 480 64V448Z" fill="black"/>
</g>
<defs>
<clipPath id="clip0_158_44">
<rect width="512" height="512" fill="white"/>
</clipPath>
</defs>
</svg>
