<svg width="512" height="512" viewBox="0 0 512 512" fill="none" xmlns="http://www.w3.org/2000/svg">
<path d="M466.45 49.374C462.969 45.2742 458.638 41.9813 453.757 39.7241C448.875 37.4669 443.561 36.2995 438.183 36.303H402.41V25.113C402.41 11.266 391.143 0 377.297 0H134.705C120.857 0 109.593 11.266 109.593 25.112V36.302H73.816C68.438 36.2986 63.1238 37.4661 58.2424 39.7233C53.3611 41.9805 49.0297 45.2733 45.549 49.373C38.557 57.594 35.535 68.392 37.26 78.997C46.66 136.797 83.035 187.86 134.66 215.869C139.377 227.21 144.719 237.952 150.668 247.96C169.67 279.935 193.293 302.033 219.295 312.72C221.93 339.364 204.201 364.605 177.501 370.62C177.444 370.633 177.404 370.653 177.348 370.666C172.137 371.911 168.258 376.587 168.258 382.179V436.542H146.272C126.67 436.542 110.723 452.489 110.723 472.091V500.149C110.723 506.694 116.028 511.999 122.573 511.999H390.56C397.105 511.999 402.41 506.694 402.41 500.149V472.091C402.41 452.489 386.463 436.542 366.861 436.542H344.873V382.18C344.873 376.577 340.98 371.894 335.755 370.66C335.706 370.648 335.659 370.632 335.61 370.62C308.708 364.565 290.946 339.07 293.858 312.226C319.406 301.366 342.615 279.465 361.337 247.962C367.286 237.953 372.627 227.21 377.345 215.867C428.967 187.857 465.34 136.795 474.74 78.997C476.465 68.392 473.443 57.595 466.45 49.374ZM60.652 75.192C60.036 71.405 61.083 67.688 63.601 64.726C64.8584 63.2441 66.4234 62.0537 68.1873 61.2376C69.9511 60.4215 71.8715 59.9992 73.815 60H109.592V81.802C109.592 115.988 113.955 149.102 122.224 179.385C89.728 153.706 67.354 116.403 60.652 75.192ZM366.861 460.243C373.395 460.243 378.711 465.559 378.711 472.093V488.301H134.422V472.093C134.422 465.559 139.738 460.243 146.272 460.243H366.861ZM321.173 394.03V436.543H191.96V394.03H321.173ZM223.037 370.331C225.993 367.075 228.67 363.576 231.039 359.871C238.936 347.532 243.081 333.514 243.267 319.197C247.476 319.77 251.724 320.077 256.008 320.077C260.645 320.073 265.274 319.726 269.86 319.041C270.13 338.28 277.618 356.491 290.209 370.33H223.037V370.331ZM378.709 81.803C378.709 140.182 365.303 194.892 340.962 235.852C317.77 274.882 287.598 296.377 256.006 296.377C224.409 296.377 194.235 274.883 171.04 235.854C146.698 194.893 133.292 140.183 133.292 81.805V25.112C133.292 24.332 133.926 23.699 134.704 23.699H377.295C378.075 23.699 378.709 24.333 378.709 25.112V81.803ZM451.348 75.192C444.646 116.4 422.274 153.702 389.779 179.383C398.047 149.1 402.41 115.988 402.41 81.803V60.001H438.183C442.121 60.001 445.843 61.724 448.397 64.727C450.915 67.688 451.963 71.405 451.348 75.192Z" fill="black"/>
<path d="M327.941 121.658C327.257 119.556 325.999 117.687 324.309 116.262C322.618 114.837 320.563 113.913 318.375 113.594L282.617 108.398L266.626 75.9962C265.647 74.0142 264.133 72.3456 262.255 71.1788C260.378 70.0121 258.211 69.3938 256 69.3938C253.79 69.3938 251.623 70.0121 249.745 71.1788C247.868 72.3456 246.354 74.0142 245.374 75.9962L229.383 108.398L193.625 113.594C191.437 113.912 189.381 114.835 187.69 116.261C185.999 117.686 184.741 119.556 184.058 121.659C183.375 123.762 183.294 126.015 183.824 128.162C184.354 130.308 185.474 132.264 187.058 133.807L212.933 159.028L206.824 194.641C206.45 196.821 206.693 199.061 207.526 201.11C208.358 203.158 209.748 204.933 211.537 206.233C213.326 207.533 215.443 208.306 217.649 208.465C219.854 208.624 222.06 208.163 224.017 207.133L256 190.32L287.982 207.133C289.939 208.162 292.145 208.623 294.35 208.464C296.556 208.304 298.672 207.531 300.46 206.23C302.249 204.931 303.639 203.156 304.472 201.108C305.305 199.06 305.548 196.82 305.174 194.64L299.065 159.027L324.94 133.806C326.524 132.263 327.645 130.308 328.175 128.161C328.706 126.014 328.625 123.761 327.941 121.658ZM278.064 146.405C276.688 147.746 275.659 149.402 275.065 151.229C274.472 153.056 274.331 155.001 274.656 156.894L277.758 174.984L261.513 166.443C259.813 165.55 257.92 165.083 255.999 165.083C254.078 165.083 252.186 165.55 250.485 166.443L234.24 174.984L237.342 156.894C237.667 155.001 237.527 153.056 236.933 151.229C236.339 149.402 235.31 147.746 233.934 146.405L220.793 133.595L238.955 130.955C240.857 130.679 242.662 129.945 244.216 128.815C245.771 127.686 247.027 126.196 247.877 124.473L256 108.015L264.122 124.473C264.973 126.196 266.229 127.686 267.783 128.815C269.338 129.944 271.143 130.679 273.044 130.955L291.206 133.595L278.064 146.405Z" fill="black"/>
</svg>
