<svg width="512" height="512" viewBox="0 0 512 512" fill="none" xmlns="http://www.w3.org/2000/svg">
<path d="M179.56 200C187.387 200.012 195.041 197.702 201.555 193.364C208.069 189.025 213.15 182.852 216.156 175.626C219.161 168.399 219.957 160.444 218.441 152.765C216.925 145.087 213.166 138.031 207.639 132.489C202.112 126.947 195.067 123.168 187.392 121.631C179.718 120.094 171.761 120.867 164.526 123.852C157.291 126.838 151.104 131.901 146.747 138.403C142.391 144.905 140.06 152.553 140.05 160.38C140.06 170.866 144.223 180.92 151.627 188.345C159.031 195.77 169.074 199.96 179.56 200ZM179.56 142.2C183.173 142.188 186.707 143.249 189.716 145.249C192.725 147.249 195.072 150.097 196.46 153.432C197.848 156.767 198.214 160.44 197.512 163.984C196.81 167.527 195.072 170.783 192.518 173.337C189.963 175.892 186.707 177.63 183.164 178.332C179.62 179.034 175.947 178.668 172.612 177.28C169.277 175.892 166.429 173.545 164.429 170.536C162.429 167.527 161.368 163.993 161.38 160.38C161.393 155.56 163.312 150.94 166.718 147.529C170.123 144.117 174.74 142.191 179.56 142.17V142.2ZM361.21 314.63C360.274 313.021 358.933 311.685 357.321 310.756C355.709 309.826 353.881 309.334 352.02 309.33C350.411 309.331 348.824 309.696 347.376 310.397C345.928 311.099 344.658 312.118 343.66 313.38L309.91 347.13C307.91 349.131 306.787 351.844 306.788 354.673C306.789 357.502 307.914 360.215 309.915 362.215C311.916 364.215 314.63 365.338 317.459 365.337C320.287 365.336 323 364.211 325 362.21L341.33 345.89L341.25 384C341.247 385.401 341.521 386.788 342.055 388.083C342.589 389.378 343.373 390.555 344.362 391.547C345.351 392.539 346.526 393.326 347.819 393.864C349.112 394.401 350.499 394.679 351.9 394.68C353.303 394.681 354.692 394.406 355.989 393.87C357.285 393.333 358.463 392.547 359.455 391.555C360.447 390.563 361.233 389.385 361.77 388.089C362.306 386.792 362.581 385.403 362.58 384L362.63 346.21L378.55 362.12C379.54 363.11 380.716 363.896 382.009 364.431C383.303 364.967 384.69 365.243 386.09 365.243C387.49 365.243 388.877 364.967 390.171 364.431C391.464 363.896 392.64 363.11 393.63 362.12C394.62 361.13 395.406 359.954 395.941 358.661C396.477 357.367 396.753 355.98 396.753 354.58C396.753 353.18 396.477 351.793 395.941 350.499C395.406 349.206 394.62 348.03 393.63 347.04L361.21 314.63Z" fill="black"/>
<path d="M412.34 291.66C401.051 280.365 386.82 272.465 371.263 268.859C355.707 265.252 339.451 266.083 324.344 271.258C309.237 276.433 295.886 285.744 285.808 298.132C275.731 310.519 269.332 325.486 267.34 341.33H113.28C108.7 341.325 104.31 339.504 101.071 336.266C97.8314 333.029 96.0079 328.64 96 324.06V321.5L163.75 254.5C168.82 249.614 175.477 246.713 182.508 246.326C189.538 245.938 196.474 248.091 202.05 252.39L219.15 269.22L220.42 270.3C227.53 275.38 237.83 275.15 244.28 269.93L299.59 215.52C306.344 208.897 314.78 204.247 323.986 202.074C333.192 199.9 342.817 200.286 351.82 203.19C357.549 205.04 362.891 207.924 367.58 211.7L373.33 217.37V224C373.33 226.83 374.454 229.544 376.455 231.545C378.456 233.546 381.17 234.67 384 234.67C386.83 234.67 389.544 233.546 391.545 231.545C393.546 229.544 394.67 226.83 394.67 224V123.94C394.657 113.702 390.583 103.888 383.343 96.6496C376.103 89.4114 366.288 85.3405 356.05 85.33H113.28C103.043 85.3405 93.2288 89.4118 85.9903 96.6503C78.7518 103.889 74.6806 113.703 74.67 123.94V324.06C74.6832 334.295 78.7556 344.107 85.9938 351.343C93.232 358.58 103.045 362.649 113.28 362.66H267.35C269.051 376.129 273.942 388.998 281.617 400.197C289.291 411.397 299.527 420.603 311.475 427.051C323.422 433.499 336.736 437.003 350.31 437.271C363.883 437.54 377.325 434.565 389.518 428.595C401.711 422.625 412.304 413.831 420.415 402.944C428.526 392.057 433.923 379.392 436.156 366C438.388 352.609 437.393 338.878 433.253 325.948C429.113 313.018 421.946 301.263 412.35 291.66H412.34ZM113.28 106.66H356.05C360.631 106.665 365.023 108.488 368.263 111.727C371.502 114.966 373.325 119.359 373.33 123.94V189.75C368.624 186.855 363.588 184.536 358.33 182.84C345.626 178.743 332.043 178.204 319.054 181.28C306.065 184.356 294.167 190.931 284.65 200.29L232.1 252L227.1 247L227.28 246.83L219.41 239.14C209.93 230.004 197.274 224.904 184.108 224.915C170.942 224.926 158.294 230.048 148.83 239.2L96 291.49V123.94C96.0053 119.359 97.8275 114.966 101.067 111.727C104.307 108.488 108.699 106.665 113.28 106.66ZM397.28 397.26C386.816 407.736 373.043 414.259 358.308 415.719C343.573 417.178 328.788 413.483 316.472 405.263C304.156 397.044 295.071 384.808 290.766 370.641C286.46 356.474 287.2 341.252 292.859 327.569C298.518 313.886 308.747 302.589 321.802 295.603C334.857 288.616 349.931 286.372 364.455 289.254C378.979 292.135 392.054 299.964 401.453 311.405C410.852 322.847 415.993 337.193 416 352C415.992 368.973 409.252 385.249 397.26 397.26H397.28Z" fill="black"/>
</svg>
