<svg width="164" height="31" viewBox="0 0 164 31" fill="none" xmlns="http://www.w3.org/2000/svg">
<path d="M0.762031 27V10.2H5.51403V23.232H13.53V27H0.762031ZM15.4105 27V10.2H20.1625V27H15.4105ZM23.5433 27V10.2H31.4873C33.3433 10.2 34.9753 10.544 36.3833 11.232C37.7913 11.92 38.8873 12.888 39.6713 14.136C40.4713 15.384 40.8713 16.872 40.8713 18.6C40.8713 20.312 40.4713 21.8 39.6713 23.064C38.8873 24.312 37.7913 25.28 36.3833 25.968C34.9753 26.656 33.3433 27 31.4873 27H23.5433ZM28.2953 23.208H31.2953C32.2553 23.208 33.0873 23.032 33.7913 22.68C34.5113 22.312 35.0713 21.784 35.4713 21.096C35.8713 20.392 36.0713 19.56 36.0713 18.6C36.0713 17.624 35.8713 16.792 35.4713 16.104C35.0713 15.416 34.5113 14.896 33.7913 14.544C33.0873 14.176 32.2553 13.992 31.2953 13.992H28.2953V23.208ZM49.8034 27.216C48.3634 27.216 47.0754 26.928 45.9394 26.352C44.8194 25.776 43.9394 24.984 43.2994 23.976C42.6594 22.952 42.3394 21.784 42.3394 20.472C42.3394 19.16 42.6594 18 43.2994 16.992C43.9394 15.984 44.8194 15.2 45.9394 14.64C47.0754 14.064 48.3634 13.776 49.8034 13.776C51.2754 13.776 52.5474 14.088 53.6194 14.712C54.6914 15.336 55.4514 16.216 55.8994 17.352L52.3714 19.152C52.0674 18.544 51.6914 18.104 51.2434 17.832C50.7954 17.544 50.3074 17.4 49.7794 17.4C49.2514 17.4 48.7714 17.52 48.3394 17.76C47.9074 18 47.5634 18.352 47.3074 18.816C47.0674 19.264 46.9474 19.816 46.9474 20.472C46.9474 21.144 47.0674 21.712 47.3074 22.176C47.5634 22.64 47.9074 22.992 48.3394 23.232C48.7714 23.472 49.2514 23.592 49.7794 23.592C50.3074 23.592 50.7954 23.456 51.2434 23.184C51.6914 22.896 52.0674 22.448 52.3714 21.84L55.8994 23.64C55.4514 24.776 54.6914 25.656 53.6194 26.28C52.5474 26.904 51.2754 27.216 49.8034 27.216ZM64.0037 27.216C62.5797 27.216 61.3157 26.928 60.2117 26.352C59.1077 25.776 58.2357 24.984 57.5957 23.976C56.9717 22.952 56.6597 21.784 56.6597 20.472C56.6597 19.16 56.9717 18 57.5957 16.992C58.2357 15.984 59.1077 15.2 60.2117 14.64C61.3157 14.064 62.5797 13.776 64.0037 13.776C65.4277 13.776 66.6917 14.064 67.7957 14.64C68.9157 15.2 69.7877 15.984 70.4117 16.992C71.0357 18 71.3477 19.16 71.3477 20.472C71.3477 21.784 71.0357 22.952 70.4117 23.976C69.7877 24.984 68.9157 25.776 67.7957 26.352C66.6917 26.928 65.4277 27.216 64.0037 27.216ZM64.0037 23.592C64.5317 23.592 64.9957 23.472 65.3957 23.232C65.8117 22.992 66.1397 22.64 66.3797 22.176C66.6197 21.696 66.7397 21.128 66.7397 20.472C66.7397 19.816 66.6197 19.264 66.3797 18.816C66.1397 18.352 65.8117 18 65.3957 17.76C64.9957 17.52 64.5317 17.4 64.0037 17.4C63.4917 17.4 63.0277 17.52 62.6117 17.76C62.2117 18 61.8837 18.352 61.6277 18.816C61.3877 19.264 61.2677 19.816 61.2677 20.472C61.2677 21.128 61.3877 21.696 61.6277 22.176C61.8837 22.64 62.2117 22.992 62.6117 23.232C63.0277 23.472 63.4917 23.592 64.0037 23.592ZM79.1241 27.216C77.9401 27.216 76.8601 26.944 75.8841 26.4C74.9241 25.84 74.1561 25.064 73.5801 24.072C73.0041 23.064 72.7161 21.864 72.7161 20.472C72.7161 19.096 73.0041 17.912 73.5801 16.92C74.1561 15.912 74.9241 15.136 75.8841 14.592C76.8601 14.048 77.9401 13.776 79.1241 13.776C80.2441 13.776 81.1881 14.016 81.9561 14.496C82.7401 14.976 83.3321 15.712 83.7321 16.704C84.1321 17.696 84.3321 18.952 84.3321 20.472C84.3321 22.024 84.1401 23.296 83.7561 24.288C83.3721 25.28 82.7961 26.016 82.0281 26.496C81.2601 26.976 80.2921 27.216 79.1241 27.216ZM80.0841 23.592C80.5961 23.592 81.0521 23.472 81.4521 23.232C81.8681 22.992 82.1961 22.64 82.4361 22.176C82.6761 21.696 82.7961 21.128 82.7961 20.472C82.7961 19.816 82.6761 19.264 82.4361 18.816C82.1961 18.352 81.8681 18 81.4521 17.76C81.0521 17.52 80.5961 17.4 80.0841 17.4C79.5561 17.4 79.0841 17.52 78.6681 17.76C78.2681 18 77.9481 18.352 77.7081 18.816C77.4681 19.264 77.3481 19.816 77.3481 20.472C77.3481 21.128 77.4681 21.696 77.7081 22.176C77.9481 22.64 78.2681 22.992 78.6681 23.232C79.0841 23.472 79.5561 23.592 80.0841 23.592ZM82.9401 27V24.768L82.9641 20.472L82.7241 16.176V9.192H87.2841V27H82.9401ZM97.0339 27.216C95.4979 27.216 94.1539 26.928 93.0019 26.352C91.8659 25.76 90.9779 24.96 90.3379 23.952C89.7139 22.928 89.4019 21.768 89.4019 20.472C89.4019 19.176 89.7059 18.024 90.3139 17.016C90.9379 15.992 91.7939 15.2 92.8819 14.64C93.9699 14.064 95.1939 13.776 96.5539 13.776C97.8339 13.776 99.0019 14.04 100.058 14.568C101.114 15.08 101.954 15.84 102.578 16.848C103.202 17.856 103.514 19.08 103.514 20.52C103.514 20.68 103.506 20.864 103.49 21.072C103.474 21.28 103.458 21.472 103.442 21.648H93.1459V19.248H101.018L99.2899 19.92C99.3059 19.328 99.1939 18.816 98.9539 18.384C98.7299 17.952 98.4099 17.616 97.9939 17.376C97.5939 17.136 97.1219 17.016 96.5779 17.016C96.0339 17.016 95.5539 17.136 95.1379 17.376C94.7379 17.616 94.4259 17.96 94.2019 18.408C93.9779 18.84 93.8659 19.352 93.8659 19.944V20.64C93.8659 21.28 93.9939 21.832 94.2499 22.296C94.5219 22.76 94.9059 23.12 95.4019 23.376C95.8979 23.616 96.4899 23.736 97.1779 23.736C97.8179 23.736 98.3619 23.648 98.8099 23.472C99.2739 23.28 99.7299 22.992 100.178 22.608L102.578 25.104C101.954 25.792 101.186 26.32 100.274 26.688C99.3619 27.04 98.2819 27.216 97.0339 27.216ZM129.217 24.568L112.897 18.648V12.952L129.217 7.032V12.472L114.945 17.368V14.232L129.217 19.128V24.568ZM129.7 30.2L140.26 0.0559978H146.66L136.1 30.2H129.7ZM146.834 24.568V19.128L161.106 14.232V17.368L146.834 12.472V7.032L163.154 12.952V18.648L146.834 24.568Z" fill="black"/>
</svg>
