<svg width="252" height="31" viewBox="0 0 252 31" fill="none" xmlns="http://www.w3.org/2000/svg">
<path d="M0.0120313 27V10.2H4.76403V23.232H12.78V27H0.0120313ZM14.6605 27V10.2H19.4125V27H14.6605ZM22.7933 27V10.2H30.7373C32.5933 10.2 34.2253 10.544 35.6333 11.232C37.0413 11.92 38.1373 12.888 38.9213 14.136C39.7213 15.384 40.1213 16.872 40.1213 18.6C40.1213 20.312 39.7213 21.8 38.9213 23.064C38.1373 24.312 37.0413 25.28 35.6333 25.968C34.2253 26.656 32.5933 27 30.7373 27H22.7933ZM27.5453 23.208H30.5453C31.5053 23.208 32.3373 23.032 33.0413 22.68C33.7613 22.312 34.3213 21.784 34.7213 21.096C35.1213 20.392 35.3213 19.56 35.3213 18.6C35.3213 17.624 35.1213 16.792 34.7213 16.104C34.3213 15.416 33.7613 14.896 33.0413 14.544C32.3373 14.176 31.5053 13.992 30.5453 13.992H27.5453V23.208ZM49.0534 27.216C47.6134 27.216 46.3254 26.928 45.1894 26.352C44.0694 25.776 43.1894 24.984 42.5494 23.976C41.9094 22.952 41.5894 21.784 41.5894 20.472C41.5894 19.16 41.9094 18 42.5494 16.992C43.1894 15.984 44.0694 15.2 45.1894 14.64C46.3254 14.064 47.6134 13.776 49.0534 13.776C50.5254 13.776 51.7974 14.088 52.8694 14.712C53.9414 15.336 54.7014 16.216 55.1494 17.352L51.6214 19.152C51.3174 18.544 50.9414 18.104 50.4934 17.832C50.0454 17.544 49.5574 17.4 49.0294 17.4C48.5014 17.4 48.0214 17.52 47.5894 17.76C47.1574 18 46.8134 18.352 46.5574 18.816C46.3174 19.264 46.1974 19.816 46.1974 20.472C46.1974 21.144 46.3174 21.712 46.5574 22.176C46.8134 22.64 47.1574 22.992 47.5894 23.232C48.0214 23.472 48.5014 23.592 49.0294 23.592C49.5574 23.592 50.0454 23.456 50.4934 23.184C50.9414 22.896 51.3174 22.448 51.6214 21.84L55.1494 23.64C54.7014 24.776 53.9414 25.656 52.8694 26.28C51.7974 26.904 50.5254 27.216 49.0534 27.216ZM63.2537 27.216C61.8297 27.216 60.5657 26.928 59.4617 26.352C58.3577 25.776 57.4857 24.984 56.8457 23.976C56.2217 22.952 55.9097 21.784 55.9097 20.472C55.9097 19.16 56.2217 18 56.8457 16.992C57.4857 15.984 58.3577 15.2 59.4617 14.64C60.5657 14.064 61.8297 13.776 63.2537 13.776C64.6777 13.776 65.9417 14.064 67.0457 14.64C68.1657 15.2 69.0377 15.984 69.6617 16.992C70.2857 18 70.5977 19.16 70.5977 20.472C70.5977 21.784 70.2857 22.952 69.6617 23.976C69.0377 24.984 68.1657 25.776 67.0457 26.352C65.9417 26.928 64.6777 27.216 63.2537 27.216ZM63.2537 23.592C63.7817 23.592 64.2457 23.472 64.6457 23.232C65.0617 22.992 65.3897 22.64 65.6297 22.176C65.8697 21.696 65.9897 21.128 65.9897 20.472C65.9897 19.816 65.8697 19.264 65.6297 18.816C65.3897 18.352 65.0617 18 64.6457 17.76C64.2457 17.52 63.7817 17.4 63.2537 17.4C62.7417 17.4 62.2777 17.52 61.8617 17.76C61.4617 18 61.1337 18.352 60.8777 18.816C60.6377 19.264 60.5177 19.816 60.5177 20.472C60.5177 21.128 60.6377 21.696 60.8777 22.176C61.1337 22.64 61.4617 22.992 61.8617 23.232C62.2777 23.472 62.7417 23.592 63.2537 23.592ZM78.3741 27.216C77.1901 27.216 76.1101 26.944 75.1341 26.4C74.1741 25.84 73.4061 25.064 72.8301 24.072C72.2541 23.064 71.9661 21.864 71.9661 20.472C71.9661 19.096 72.2541 17.912 72.8301 16.92C73.4061 15.912 74.1741 15.136 75.1341 14.592C76.1101 14.048 77.1901 13.776 78.3741 13.776C79.4941 13.776 80.4381 14.016 81.2061 14.496C81.9901 14.976 82.5821 15.712 82.9821 16.704C83.3821 17.696 83.5821 18.952 83.5821 20.472C83.5821 22.024 83.3901 23.296 83.0061 24.288C82.6221 25.28 82.0461 26.016 81.2781 26.496C80.5101 26.976 79.5421 27.216 78.3741 27.216ZM79.3341 23.592C79.8461 23.592 80.3021 23.472 80.7021 23.232C81.1181 22.992 81.4461 22.64 81.6861 22.176C81.9261 21.696 82.0461 21.128 82.0461 20.472C82.0461 19.816 81.9261 19.264 81.6861 18.816C81.4461 18.352 81.1181 18 80.7021 17.76C80.3021 17.52 79.8461 17.4 79.3341 17.4C78.8061 17.4 78.3341 17.52 77.9181 17.76C77.5181 18 77.1981 18.352 76.9581 18.816C76.7181 19.264 76.5981 19.816 76.5981 20.472C76.5981 21.128 76.7181 21.696 76.9581 22.176C77.1981 22.64 77.5181 22.992 77.9181 23.232C78.3341 23.472 78.8061 23.592 79.3341 23.592ZM82.1901 27V24.768L82.2141 20.472L81.9741 16.176V9.192H86.5341V27H82.1901ZM96.2839 27.216C94.7479 27.216 93.4039 26.928 92.2519 26.352C91.1159 25.76 90.2279 24.96 89.5879 23.952C88.9639 22.928 88.6519 21.768 88.6519 20.472C88.6519 19.176 88.9559 18.024 89.5639 17.016C90.1879 15.992 91.0439 15.2 92.1319 14.64C93.2199 14.064 94.4439 13.776 95.8039 13.776C97.0839 13.776 98.2519 14.04 99.3079 14.568C100.364 15.08 101.204 15.84 101.828 16.848C102.452 17.856 102.764 19.08 102.764 20.52C102.764 20.68 102.756 20.864 102.74 21.072C102.724 21.28 102.708 21.472 102.692 21.648H92.3959V19.248H100.268L98.5399 19.92C98.5559 19.328 98.4439 18.816 98.2039 18.384C97.9799 17.952 97.6599 17.616 97.2439 17.376C96.8439 17.136 96.3719 17.016 95.8279 17.016C95.2839 17.016 94.8039 17.136 94.3879 17.376C93.9879 17.616 93.6759 17.96 93.4519 18.408C93.2279 18.84 93.1159 19.352 93.1159 19.944V20.64C93.1159 21.28 93.2439 21.832 93.4999 22.296C93.7719 22.76 94.1559 23.12 94.6519 23.376C95.1479 23.616 95.7399 23.736 96.4279 23.736C97.0679 23.736 97.6119 23.648 98.0599 23.472C98.5239 23.28 98.9799 22.992 99.4279 22.608L101.828 25.104C101.204 25.792 100.436 26.32 99.5239 26.688C98.6119 27.04 97.5319 27.216 96.2839 27.216ZM128.467 24.568L112.147 18.648V12.952L128.467 7.032V12.472L114.195 17.368V14.232L128.467 19.128V24.568ZM128.95 30.2L139.51 0.0559978H145.91L135.35 30.2H128.95ZM146.084 24.568V19.128L160.356 14.232V17.368L146.084 12.472V7.032L162.404 12.952V18.648L146.084 24.568ZM180.771 27V24.576L180.459 23.976V19.512C180.459 18.792 180.235 18.24 179.787 17.856C179.355 17.456 178.659 17.256 177.699 17.256C177.075 17.256 176.443 17.36 175.803 17.568C175.163 17.76 174.619 18.032 174.171 18.384L172.635 15.288C173.371 14.808 174.251 14.44 175.275 14.184C176.315 13.912 177.347 13.776 178.371 13.776C180.483 13.776 182.115 14.264 183.267 15.24C184.435 16.2 185.019 17.712 185.019 19.776V27H180.771ZM176.931 27.216C175.891 27.216 175.011 27.04 174.291 26.688C173.571 26.336 173.019 25.856 172.635 25.248C172.267 24.64 172.083 23.96 172.083 23.208C172.083 22.408 172.283 21.72 172.683 21.144C173.099 20.552 173.731 20.104 174.579 19.8C175.427 19.48 176.523 19.32 177.867 19.32H180.939V21.696H178.491C177.755 21.696 177.235 21.816 176.931 22.056C176.643 22.296 176.499 22.616 176.499 23.016C176.499 23.416 176.651 23.736 176.955 23.976C177.259 24.216 177.675 24.336 178.203 24.336C178.699 24.336 179.147 24.216 179.547 23.976C179.963 23.72 180.267 23.336 180.459 22.824L181.083 24.504C180.843 25.4 180.371 26.08 179.667 26.544C178.979 26.992 178.067 27.216 176.931 27.216ZM193.726 27.216C192.542 27.216 191.462 26.944 190.486 26.4C189.526 25.84 188.758 25.064 188.182 24.072C187.606 23.064 187.318 21.864 187.318 20.472C187.318 19.096 187.606 17.912 188.182 16.92C188.758 15.912 189.526 15.136 190.486 14.592C191.462 14.048 192.542 13.776 193.726 13.776C194.846 13.776 195.79 14.016 196.558 14.496C197.342 14.976 197.934 15.712 198.334 16.704C198.734 17.696 198.934 18.952 198.934 20.472C198.934 22.024 198.742 23.296 198.358 24.288C197.974 25.28 197.398 26.016 196.63 26.496C195.862 26.976 194.894 27.216 193.726 27.216ZM194.686 23.592C195.198 23.592 195.654 23.472 196.054 23.232C196.47 22.992 196.798 22.64 197.038 22.176C197.278 21.696 197.398 21.128 197.398 20.472C197.398 19.816 197.278 19.264 197.038 18.816C196.798 18.352 196.47 18 196.054 17.76C195.654 17.52 195.198 17.4 194.686 17.4C194.158 17.4 193.686 17.52 193.27 17.76C192.87 18 192.55 18.352 192.31 18.816C192.07 19.264 191.95 19.816 191.95 20.472C191.95 21.128 192.07 21.696 192.31 22.176C192.55 22.64 192.87 22.992 193.27 23.232C193.686 23.472 194.158 23.592 194.686 23.592ZM197.542 27V24.768L197.566 20.472L197.326 16.176V9.192H201.886V27H197.542ZM221.763 13.776C222.771 13.776 223.667 13.984 224.451 14.4C225.251 14.8 225.875 15.424 226.323 16.272C226.787 17.12 227.019 18.216 227.019 19.56V27H222.459V20.304C222.459 19.376 222.283 18.704 221.931 18.288C221.579 17.856 221.099 17.64 220.491 17.64C220.059 17.64 219.667 17.744 219.315 17.952C218.963 18.16 218.691 18.48 218.499 18.912C218.307 19.328 218.211 19.872 218.211 20.544V27H213.651V20.304C213.651 19.376 213.475 18.704 213.123 18.288C212.787 17.856 212.307 17.64 211.683 17.64C211.235 17.64 210.835 17.744 210.483 17.952C210.147 18.16 209.875 18.48 209.667 18.912C209.475 19.328 209.379 19.872 209.379 20.544V27H204.819V13.992H209.163V17.616L208.299 16.584C208.779 15.656 209.435 14.96 210.267 14.496C211.099 14.016 212.027 13.776 213.051 13.776C214.219 13.776 215.243 14.08 216.123 14.688C217.019 15.28 217.619 16.208 217.923 17.472L216.435 17.16C216.899 16.104 217.595 15.28 218.523 14.688C219.467 14.08 220.547 13.776 221.763 13.776ZM229.898 27V13.992H234.458V27H229.898ZM232.178 12.552C231.346 12.552 230.674 12.32 230.162 11.856C229.65 11.392 229.394 10.816 229.394 10.128C229.394 9.44 229.65 8.864 230.162 8.4C230.674 7.936 231.346 7.704 232.178 7.704C233.01 7.704 233.682 7.928 234.194 8.376C234.706 8.808 234.962 9.368 234.962 10.056C234.962 10.776 234.706 11.376 234.194 11.856C233.698 12.32 233.026 12.552 232.178 12.552ZM245.893 13.776C246.901 13.776 247.813 13.984 248.629 14.4C249.445 14.8 250.085 15.424 250.549 16.272C251.029 17.12 251.269 18.216 251.269 19.56V27H246.709V20.304C246.709 19.376 246.517 18.704 246.133 18.288C245.765 17.856 245.245 17.64 244.573 17.64C244.093 17.64 243.653 17.752 243.253 17.976C242.853 18.184 242.541 18.512 242.317 18.96C242.093 19.408 241.981 19.992 241.981 20.712V27H237.421V13.992H241.765V17.688L240.925 16.608C241.421 15.664 242.101 14.96 242.965 14.496C243.829 14.016 244.805 13.776 245.893 13.776Z" fill="black"/>
</svg>
