<svg width="512" height="512" viewBox="0 0 512 512" fill="none" xmlns="http://www.w3.org/2000/svg">
<g clip-path="url(#clip0_123_3)">
<path d="M118.535 222.005C116.272 222.006 114.103 222.905 112.502 224.505C110.902 226.105 110.003 228.275 110.002 230.538V281.739C110.002 286.449 113.825 290.272 118.535 290.272C123.245 290.272 127.068 286.449 127.068 281.739V230.538C127.069 225.828 123.246 222.005 118.535 222.005Z" fill="black"/>
<path d="M115.353 2.28141L32.1467 34.5676C8.71217 42.9827 0 54.4022 0 76.7021V435.226C0 457.527 8.71217 468.945 31.9271 477.292L115.52 509.724C119.656 511.243 123.809 512.011 127.875 512.011C145.564 512.011 158.403 497.673 158.403 477.916V34.0306C158.403 9.75839 138.444 -6.14969 115.353 2.28141ZM140.802 477.916C140.802 488.097 135.61 494.942 127.875 494.942C125.948 494.942 123.871 494.541 121.891 493.824L38.2632 461.367C21.6577 455.402 17.6007 450.264 17.6007 435.226V76.7021C17.6007 61.6642 21.6577 56.5355 38.4746 50.4927L121.724 18.1985C123.871 17.4134 125.939 17.0123 127.866 17.0123C135.602 17.0123 140.802 23.8482 140.802 34.0306V257.511V477.916ZM183.703 51.0988H308.005C322.561 51.0988 334.406 62.5863 334.406 76.7021V204.719C334.405 205.84 334.633 206.95 335.075 207.985C335.517 209.021 336.165 209.962 336.982 210.754C337.8 211.547 338.77 212.175 339.838 212.604C340.905 213.033 342.05 213.253 343.206 213.253C344.361 213.253 345.506 213.033 346.574 212.604C347.642 212.175 348.612 211.547 349.429 210.754C350.246 209.962 350.894 209.021 351.336 207.985C351.779 206.95 352.006 205.84 352.005 204.719V76.7021C352.005 53.1731 332.267 34.0296 308.004 34.0296H183.703C178.846 34.0296 174.903 37.8531 174.903 42.5637C174.903 47.2743 178.846 51.0988 183.703 51.0988ZM343.207 298.598C342.051 298.598 340.906 298.818 339.839 299.247C338.771 299.676 337.801 300.304 336.983 301.097C336.166 301.889 335.518 302.83 335.076 303.866C334.634 304.901 334.406 306.011 334.407 307.132V435.149C334.407 449.265 322.562 460.752 308.006 460.752H184.804C179.946 460.752 176.004 464.576 176.004 469.286C176.004 473.997 179.946 477.821 184.804 477.821H308.006C332.268 477.821 352.008 458.678 352.008 435.148V307.131C352.008 306.011 351.78 304.901 351.338 303.865C350.895 302.83 350.247 301.889 349.43 301.097C348.612 300.304 347.642 299.676 346.574 299.247C345.507 298.818 344.362 298.598 343.207 298.598Z" fill="black"/>
<path d="M511.354 252.661C510.926 251.62 510.297 250.675 509.502 249.878L424.175 164.544C423.383 163.751 422.443 163.121 421.407 162.692C420.372 162.263 419.262 162.042 418.142 162.042C417.021 162.042 415.911 162.263 414.876 162.692C413.841 163.121 412.9 163.751 412.109 164.544C411.315 165.335 410.686 166.276 410.256 167.311C409.827 168.346 409.606 169.456 409.606 170.577C409.606 171.698 409.827 172.807 410.256 173.843C410.686 174.878 411.315 175.818 412.109 176.61L482.877 247.386H196.271C194.008 247.387 191.838 248.286 190.238 249.887C188.638 251.487 187.005 253.743 187.004 256.005C187.005 258.268 188.638 260.352 190.238 261.953C191.838 263.553 194.008 264.452 196.271 264.453H482.878L412.109 335.222C411.315 336.014 410.686 336.954 410.256 337.99C409.827 339.025 409.606 340.135 409.606 341.255C409.606 342.376 409.827 343.486 410.256 344.521C410.686 345.556 411.315 346.497 412.109 347.289C412.9 348.082 413.84 348.711 414.876 349.14C415.911 349.569 417.021 349.79 418.142 349.789C419.262 349.79 420.372 349.569 421.408 349.14C422.443 348.711 423.383 348.082 424.175 347.289L509.502 261.962C510.297 261.166 510.926 260.22 511.354 259.18C512.216 257.092 512.216 254.748 511.354 252.661Z" fill="black"/>
</g>
<defs>
<clipPath id="clip0_123_3">
<rect width="512" height="512" fill="white"/>
</clipPath>
</defs>
</svg>
