<svg width="512" height="512" viewBox="0 0 512 512" fill="none" xmlns="http://www.w3.org/2000/svg">
<path d="M416 32H335.999L335.979 32.001C328.674 22.292 317.059 16 304 16H283.61C277.966 6.242 267.481 0 256 0C244.519 0 234.034 6.242 228.39 16H208C194.941 16 183.326 22.292 176.021 32.001L176 32H96C73.944 32 56 49.944 56 72V472C56 494.056 73.944 512 96 512H416C438.056 512 456 494.056 456 472V72C456 49.944 438.056 32 416 32ZM184 56C184 42.767 194.767 32 208 32H233.47C235.122 31.9999 236.733 31.4885 238.083 30.5359C239.433 29.5834 240.454 28.2364 241.008 26.68C243.278 20.292 249.303 16 256 16C262.697 16 268.722 20.292 270.992 26.68C271.546 28.2364 272.567 29.5834 273.917 30.5359C275.267 31.4885 276.878 31.9999 278.53 32H304C317.233 32 328 42.767 328 56V80H184V56ZM440 472C440 485.233 429.233 496 416 496H96C82.767 496 72 485.233 72 472V72C72 58.767 82.767 48 96 48H168.805C168.269 50.6329 167.999 53.3131 168 56V88C168 90.1217 168.843 92.1566 170.343 93.6569C171.843 95.1571 173.878 96 176 96H336C338.122 96 340.157 95.1571 341.657 93.6569C343.157 92.1566 344 90.1217 344 88V56C344 53.261 343.722 50.586 343.195 48H416C429.233 48 440 58.767 440 72V472Z" fill="black"/>
<path d="M416 64H368C365.878 64 363.843 64.8429 362.343 66.3431C360.843 67.8434 360 69.8783 360 72C360 74.1217 360.843 76.1566 362.343 77.6569C363.843 79.1571 365.878 80 368 80H408V464H104V80H144C146.122 80 148.157 79.1571 149.657 77.6569C151.157 76.1566 152 74.1217 152 72C152 69.8783 151.157 67.8434 149.657 66.3431C148.157 64.8429 146.122 64 144 64H96C93.8783 64 91.8434 64.8429 90.3431 66.3431C88.8429 67.8434 88 69.8783 88 72V472C88 474.122 88.8429 476.157 90.3431 477.657C91.8434 479.157 93.8783 480 96 480H416C418.122 480 420.157 479.157 421.657 477.657C423.157 476.157 424 474.122 424 472V72C424 69.8783 423.157 67.8434 421.657 66.3431C420.157 64.8429 418.122 64 416 64ZM256 32C253.89 32 251.83 32.85 250.34 34.34C248.845 35.8447 248.004 37.8787 248 40C248 42.1 248.85 44.17 250.34 45.66C251.845 47.1553 253.879 47.9962 256 48C258.1 48 260.17 47.15 261.66 45.66C263.155 44.1553 263.996 42.1213 264 40C264 37.89 263.15 35.83 261.66 34.34C260.154 32.846 258.121 32.0053 256 32Z" fill="black"/>
<path d="M130.343 186.343C129.6 187.086 129.011 187.968 128.608 188.938C128.206 189.909 127.999 190.949 127.999 192C127.999 193.05 128.206 194.09 128.608 195.061C129.011 196.031 129.6 196.913 130.343 197.656L154.343 221.656C155.905 223.218 157.952 223.999 160 223.999C162.048 223.999 164.095 223.218 165.657 221.656L205.657 181.656C206.4 180.913 206.989 180.031 207.392 179.061C207.794 178.09 208.001 177.05 208.001 176C208.001 174.949 207.794 173.909 207.392 172.938C206.989 171.968 206.4 171.086 205.657 170.343C204.157 168.843 202.122 168 200.001 168C197.879 168 195.844 168.843 194.344 170.343L160 204.686L141.657 186.343C140.914 185.6 140.032 185.011 139.062 184.609C138.091 184.207 137.051 184 136 184C134.949 184 133.909 184.207 132.938 184.609C131.968 185.011 131.086 185.6 130.343 186.343ZM205.657 258.343C204.157 256.843 202.122 256 200.001 256C197.879 256 195.844 256.843 194.344 258.343L160 292.686L141.657 274.343C140.157 272.843 138.122 272 136.001 272C133.879 272 131.844 272.843 130.344 274.343C129.601 275.086 129.012 275.968 128.609 276.938C128.207 277.909 128 278.949 128 280C128 281.05 128.207 282.09 128.609 283.061C129.012 284.031 129.601 284.913 130.344 285.656L154.344 309.656C155.906 311.218 157.953 311.999 160.001 311.999C162.049 311.999 164.096 311.218 165.658 309.656L205.658 269.656C207.158 268.156 208 266.121 208 263.999C208 261.878 207.157 259.843 205.657 258.343ZM194.343 346.343L160 380.686L141.657 362.343C140.157 360.843 138.122 360 136.001 360C133.879 360 131.844 360.843 130.344 362.343C129.601 363.086 129.012 363.968 128.609 364.938C128.207 365.909 128 366.949 128 368C128 369.05 128.207 370.09 128.609 371.061C129.012 372.031 129.601 372.913 130.344 373.656L154.344 397.656C155.906 399.218 157.953 399.999 160.001 399.999C162.049 399.999 164.096 399.218 165.658 397.656L205.658 357.656C206.401 356.913 206.99 356.031 207.393 355.061C207.795 354.09 208.002 353.05 208.002 352C208.002 350.949 207.795 349.909 207.393 348.938C206.99 347.968 206.401 347.086 205.658 346.343C204.157 344.843 202.122 344 200.001 344C197.879 344 195.844 344.843 194.343 346.343ZM240 200H376C378.122 200 380.157 199.157 381.657 197.657C383.157 196.157 384 194.122 384 192C384 189.878 383.157 187.843 381.657 186.343C380.157 184.843 378.122 184 376 184H240C237.878 184 235.843 184.843 234.343 186.343C232.843 187.843 232 189.878 232 192C232 194.122 232.843 196.157 234.343 197.657C235.843 199.157 237.878 200 240 200ZM240 288H376C378.122 288 380.157 287.157 381.657 285.657C383.157 284.157 384 282.122 384 280C384 277.878 383.157 275.843 381.657 274.343C380.157 272.843 378.122 272 376 272H240C237.878 272 235.843 272.843 234.343 274.343C232.843 275.843 232 277.878 232 280C232 282.122 232.843 284.157 234.343 285.657C235.843 287.157 237.878 288 240 288ZM240 376H376C378.122 376 380.157 375.157 381.657 373.657C383.157 372.157 384 370.122 384 368C384 365.878 383.157 363.843 381.657 362.343C380.157 360.843 378.122 360 376 360H240C237.878 360 235.843 360.843 234.343 362.343C232.843 363.843 232 365.878 232 368C232 370.122 232.843 372.157 234.343 373.657C235.843 375.157 237.878 376 240 376Z" fill="black"/>
</svg>
