<svg width="512" height="512" viewBox="0 0 512 512" fill="none" xmlns="http://www.w3.org/2000/svg">
<path d="M305.552 410.718H266.753C261.231 410.718 256.754 415.194 256.754 420.717C256.754 426.24 261.231 430.716 266.753 430.716H305.552C311.54 430.716 316.412 435.587 316.412 441.575C316.412 447.563 311.541 452.434 305.552 452.434H201.109C185.409 452.434 170.645 445.512 160.605 433.442L135.628 403.42C122.226 387.31 102.721 377.875 81.8508 377.278V318.212H118.667C136.823 318.212 154.014 325.156 167.075 337.764L220.983 389.798C224.794 393.477 224.972 399.637 221.379 403.529C217.717 407.495 211.501 407.754 207.522 404.107L165.199 365.311C161.13 361.581 154.804 361.854 151.073 365.925C147.341 369.996 147.616 376.321 151.687 380.052L194.01 418.848C199.718 424.08 206.941 426.664 214.146 426.664C222.19 426.664 230.211 423.443 236.074 417.092C246.98 405.277 246.441 386.579 234.872 375.411L180.964 323.377C164.155 307.151 142.031 298.215 118.667 298.215H79.9088C76.1468 289.311 67.3239 283.046 57.0659 283.046H9.99898C4.47699 283.046 0 287.522 0 293.045V366.161C0 371.683 4.47699 376.16 9.99898 376.16C15.521 376.16 19.998 371.684 19.998 366.161V303.043H57.0669C58.3361 303.044 59.5529 303.549 60.4503 304.446C61.3478 305.344 61.8526 306.56 61.8539 307.83V387.972C61.8526 389.242 61.3478 390.458 60.4503 391.356C59.5529 392.253 58.3361 392.758 57.0669 392.759H46.6819C41.1599 392.759 36.6829 397.235 36.6829 402.758C36.6829 408.28 41.1599 412.757 46.6819 412.757H57.0659C67.4619 412.757 76.3769 406.321 80.0518 397.226C95.6398 397.315 110.279 404.218 120.255 416.21L145.232 446.232C159.084 462.883 179.45 472.432 201.109 472.432H305.552C322.566 472.432 336.409 458.59 336.409 441.575C336.409 424.56 322.566 410.718 305.552 410.718ZM502 131.934C496.478 131.934 492.001 136.41 492.001 141.933V208.958H454.932C453.663 208.956 452.446 208.452 451.549 207.554C450.651 206.657 450.146 205.44 450.145 204.171V124.028C450.146 122.759 450.651 121.542 451.549 120.644C452.446 119.747 453.663 119.242 454.932 119.241H464.583C470.105 119.241 474.582 114.765 474.582 109.242C474.582 103.72 470.105 99.243 464.583 99.243H454.932C444.536 99.243 435.621 105.679 431.946 114.774C416.358 114.685 401.719 107.782 391.743 95.79L366.766 65.7691C352.915 49.1181 332.548 39.5681 310.888 39.5681H206.447C189.433 39.5681 175.59 53.4101 175.59 70.4241C175.59 87.438 189.433 101.28 206.447 101.28H249.155C254.676 101.28 259.153 96.804 259.153 91.281C259.153 85.758 254.676 81.282 249.155 81.282H206.447C200.459 81.282 195.587 76.411 195.587 70.4231C195.587 64.4361 200.458 59.5641 206.447 59.5641H310.889C326.59 59.5641 341.354 66.4861 351.394 78.556L376.371 108.577C389.772 124.687 409.278 134.122 430.148 134.72V193.787H393.332C375.176 193.787 357.985 186.843 344.924 174.235L291.016 122.2C287.205 118.521 287.027 112.362 290.62 108.469C294.282 104.502 300.498 104.244 304.477 107.891L346.801 146.687C347.766 147.591 348.901 148.295 350.14 148.758C351.378 149.221 352.697 149.433 354.018 149.383C355.339 149.333 356.638 149.021 357.838 148.465C359.038 147.91 360.116 147.122 361.01 146.147C361.903 145.173 362.594 144.03 363.044 142.786C363.493 141.543 363.69 140.222 363.626 138.901C363.561 137.581 363.235 136.286 362.666 135.092C362.098 133.898 361.298 132.829 360.313 131.946L317.989 93.151C305.909 82.078 287.041 82.867 275.925 94.907C265.019 106.723 265.558 125.421 277.127 136.588L331.035 188.623C347.844 204.849 369.968 213.785 393.332 213.785H432.09C435.852 222.689 444.675 228.954 454.933 228.954H502.001C507.523 228.954 512 224.478 512 218.955V141.931C511.999 136.41 507.522 131.934 502 131.934ZM322.837 379.642C320.563 374.61 314.653 372.365 309.625 374.638C304.561 376.843 302.245 382.735 304.45 387.797C305.228 389.584 306.51 391.104 308.139 392.171C309.769 393.239 311.674 393.807 313.622 393.806C314.995 393.806 316.352 393.522 317.609 392.972L317.824 392.877C322.857 390.604 325.11 384.675 322.837 379.642ZM347.692 362.808C344.423 358.368 338.14 357.445 333.695 360.698C329.24 363.96 328.272 370.217 331.534 374.672C332.463 375.943 333.678 376.976 335.081 377.687C336.485 378.398 338.036 378.768 339.609 378.765C341.659 378.765 343.728 378.137 345.508 376.834L345.633 376.742C350.062 373.462 350.96 367.246 347.692 362.808Z" fill="black"/>
<path d="M294.884 390.868C293.745 385.483 288.458 382.035 283.068 383.149C277.684 384.218 274.164 389.433 275.196 394.833C276.112 399.623 280.303 402.956 285.006 402.956C285.74 402.956 286.472 402.875 287.189 402.716C292.589 401.571 296.027 396.269 294.884 390.868ZM368.581 341.061C364.481 337.363 358.16 337.688 354.46 341.789L354.248 342.029C350.64 346.21 351.106 352.524 355.287 356.131C357.099 357.699 359.416 358.561 361.813 358.559C363.235 358.561 364.64 358.259 365.936 357.674C367.232 357.089 368.387 356.233 369.325 355.165C373.007 351.064 372.676 344.754 368.581 341.061ZM362.997 349.492L361.885 348.486L363.089 349.572L362.997 349.492ZM394.031 286.873C388.747 285.27 383.157 288.285 381.554 293.57C379.93 298.848 382.892 304.443 388.17 306.067C389.123 306.362 390.115 306.512 391.113 306.512C395.387 306.512 399.344 303.75 400.666 299.451L400.708 299.314C402.31 294.029 399.315 288.475 394.031 286.873ZM406.838 235.267C406.816 235.14 406.792 235.013 406.765 234.886C405.636 229.482 400.34 226.025 394.938 227.152C389.555 228.274 386.094 233.538 387.178 238.92C388.095 243.691 392.276 247.03 396.984 247.03C397.569 247.03 398.163 246.979 398.758 246.872C404.194 245.899 407.811 240.703 406.838 235.267ZM397.668 256.962C392.185 256.478 387.315 260.543 386.83 266.043C386.821 266.14 386.807 266.337 386.801 266.434C386.477 271.947 390.682 276.679 396.195 277.003C396.395 277.015 396.593 277.021 396.791 277.021C401.997 277.021 406.372 272.995 406.755 267.752C407.211 262.272 403.153 257.446 397.668 256.962ZM384.243 315.325C379.443 312.604 373.337 314.29 370.615 319.095L370.476 319.345C367.843 324.199 369.62 330.312 374.473 332.945C375.942 333.745 377.589 334.165 379.262 334.166C381.053 334.169 382.812 333.688 384.351 332.772C385.89 331.857 387.153 330.541 388.005 328.966L379.313 324.024L388.012 328.954C390.735 324.149 389.048 318.048 384.243 315.325ZM202.895 124.9C200.426 119.96 194.417 117.957 189.481 120.428L189.392 120.472C184.452 122.942 182.495 128.925 184.965 133.864C186.714 137.363 190.258 139.377 193.932 139.377C195.446 139.377 196.982 139.035 198.423 138.315C203.363 135.846 205.364 129.84 202.895 124.9ZM231.822 116.563C231.508 115.267 230.938 114.047 230.146 112.974C229.353 111.902 228.354 110.998 227.207 110.318C226.06 109.638 224.789 109.194 223.467 109.012C222.146 108.83 220.802 108.915 219.514 109.261C214.166 110.639 210.927 116.096 212.304 121.443C212.854 123.589 214.101 125.491 215.849 126.85C217.598 128.21 219.748 128.95 221.963 128.954C222.787 128.954 223.625 128.851 224.461 128.636C229.827 127.335 233.123 121.93 231.822 116.563ZM176.456 139.319C172.998 135.022 166.702 134.347 162.4 137.797L168.599 145.642L162.37 137.82C158.05 141.26 157.337 147.55 160.776 151.87C161.713 153.048 162.903 153.999 164.259 154.652C165.615 155.305 167.101 155.643 168.606 155.641C170.867 155.642 173.061 154.875 174.828 153.464L174.96 153.358C179.25 149.893 179.914 143.616 176.456 139.319ZM123.143 210.461C117.815 209.009 112.319 212.148 110.866 217.476C110.841 217.567 110.793 217.756 110.77 217.848C109.47 223.213 112.766 228.608 118.13 229.911C118.922 230.103 119.714 230.195 120.494 230.195C124.98 230.195 129.056 227.151 130.192 222.614C131.563 217.326 128.43 211.903 123.143 210.461ZM116.773 239.84C111.246 239.533 106.532 243.732 106.212 249.244C106.204 249.373 106.199 249.501 106.195 249.629C106.033 255.146 110.374 259.743 115.892 259.908C115.994 259.911 116.094 259.913 116.195 259.913C121.555 259.913 125.984 255.66 126.182 250.276C126.432 244.817 122.244 240.158 116.773 239.84ZM135.727 183.136C130.836 180.57 124.793 182.455 122.228 187.345L122.065 187.667C119.628 192.62 121.672 198.602 126.624 201.041C127.993 201.718 129.5 202.07 131.028 202.07C134.7 202.07 138.235 200.038 139.987 196.538C142.477 191.665 140.585 185.685 135.727 183.136ZM153.785 159.079C149.536 155.552 143.232 156.137 139.705 160.385L139.499 160.639C136.071 164.966 136.804 171.244 141.129 174.674C142.892 176.077 145.078 176.839 147.331 176.837C148.831 176.839 150.313 176.504 151.666 175.855C153.019 175.207 154.209 174.262 155.147 173.091C158.611 168.844 158.011 162.588 153.785 159.079ZM128.073 278.028C127.1 272.592 121.901 268.975 116.468 269.949C111.032 270.923 107.415 276.118 108.388 281.554L108.406 281.652C109.272 286.485 113.469 289.842 118.21 289.842C118.801 289.842 119.4 289.79 120.002 289.682C125.438 288.709 129.047 283.464 128.073 278.028ZM290.332 202.125C277.317 202.125 265.258 207.492 256.665 216.549C248.071 207.492 236.013 202.125 222.998 202.125C197.395 202.125 176.566 222.954 176.566 248.557C176.566 262.372 182.659 275.374 193.281 284.23C193.345 284.284 193.411 284.337 193.477 284.39L250.458 329.502C252.224 330.902 254.411 331.663 256.664 331.661C258.928 331.663 261.124 330.895 262.894 329.483L322.289 282.173C322.58 281.942 322.857 281.694 323.12 281.432C331.919 272.657 336.764 260.982 336.764 248.557C336.764 222.954 315.935 202.125 290.332 202.125ZM309.36 266.908L256.647 308.896L205.997 268.797C203.041 266.318 200.664 263.222 199.034 259.725C197.404 256.228 196.561 252.417 196.564 248.559C196.563 233.982 208.422 222.123 222.998 222.123C228.231 222.114 233.347 223.661 237.698 226.569C242.048 229.476 245.435 233.612 247.428 238.45C248.185 240.276 249.467 241.837 251.111 242.935C252.755 244.033 254.688 244.619 256.665 244.619C258.642 244.619 260.575 244.033 262.219 242.935C263.863 241.837 265.145 240.276 265.902 238.45C267.895 233.612 271.282 229.476 275.632 226.569C279.983 223.661 285.1 222.114 290.332 222.123C304.908 222.123 316.767 233.982 316.767 248.558C316.767 255.46 314.14 261.956 309.36 266.908Z" fill="black"/>
<path d="M9.99891 412.723C15.5019 412.723 19.9629 408.262 19.9629 402.759C19.9629 397.256 15.5019 392.795 9.99891 392.795C4.49595 392.795 0.0349121 397.256 0.0349121 402.759C0.0349121 408.262 4.49595 412.723 9.99891 412.723Z" fill="black"/>
<path d="M501.999 119.204C507.502 119.204 511.963 114.743 511.963 109.24C511.963 103.737 507.502 99.2759 501.999 99.2759C496.496 99.2759 492.035 103.737 492.035 109.24C492.035 114.743 496.496 119.204 501.999 119.204Z" fill="black"/>
</svg>
