<svg width="512" height="512" viewBox="0 0 512 512" fill="none" xmlns="http://www.w3.org/2000/svg">
<path d="M451.72 237.26C434.298 228.55 401.633 228.449 400.251 228.449C398.262 228.449 396.354 229.239 394.948 230.646C393.541 232.052 392.751 233.96 392.751 235.949C392.751 237.938 393.541 239.846 394.948 241.252C396.354 242.659 398.262 243.449 400.251 243.449C408.68 243.45 433.153 244.748 445.012 250.677C446.785 251.516 448.816 251.627 450.67 250.986C452.524 250.346 454.053 249.004 454.93 247.25C455.807 245.496 455.962 243.468 455.362 241.6C454.762 239.733 453.455 238.175 451.72 237.26Z" fill="black"/>
<path d="M489.112 344.041L458.137 335.191C457.484 335.002 456.91 334.606 456.5 334.064C456.091 333.521 455.868 332.86 455.866 332.18V321.841C458.414 320.081 460.812 318.114 463.037 315.96C473.927 305.392 479.924 291.217 479.924 276.045V261.778L482.919 255.789C486.215 249.177 487.934 241.891 487.943 234.503V195.853C487.943 193.864 487.153 191.956 485.746 190.55C484.34 189.143 482.432 188.353 480.443 188.353H408.27C382.026 188.353 360.674 209.705 360.674 235.949V236.396C360.681 242.539 362.111 248.597 364.852 254.095L368.693 261.777V274.027C368.693 293.441 378.26 310.86 392.751 321.342L392.753 332.178C392.753 333.849 392.753 334.541 386.56 336.311L371.446 340.629L327.725 324.731C327.806 323.684 327.666 322.632 327.313 321.643C326.961 320.653 326.405 319.749 325.681 318.989L311.71 304.311V279.671C313.198 278.454 314.647 277.191 316.054 275.882C333.679 259.362 343.787 236.038 343.787 211.891V192.213C349.109 180.632 351.806 168.377 351.806 155.756V75.5659C351.806 73.5768 351.016 71.6691 349.609 70.2626C348.203 68.8561 346.295 68.0659 344.306 68.0659H232.037C192.527 68.0659 160.384 100.21 160.384 139.719V155.758C160.384 168.379 163.081 180.634 168.403 192.215V209.146C168.403 237.182 180.869 262.44 200.48 279.092V304.312L186.509 318.99C185.785 319.75 185.229 320.654 184.877 321.644C184.524 322.633 184.384 323.685 184.465 324.732L138.32 341.511C135.027 342.71 131.908 344.344 129.048 346.369L121.802 342.746C143.372 333.357 150.205 320.152 150.533 319.496C151.054 318.455 151.325 317.306 151.325 316.142C151.325 314.978 151.054 313.829 150.533 312.788C145.126 301.974 144.471 282.153 143.945 266.227C143.77 260.925 143.604 255.916 143.287 251.456C140.73 215.482 113.382 188.353 79.672 188.353C45.962 188.353 18.613 215.481 16.057 251.456C15.74 255.917 15.574 260.926 15.399 266.229C14.873 282.154 14.217 301.973 8.811 312.787C8.29017 313.828 8.01902 314.977 8.01902 316.141C8.01902 317.305 8.29017 318.454 8.811 319.495C9.139 320.151 15.958 333.329 37.571 342.729L17.444 352.792C6.684 358.176 0 368.991 0 381.02V436.429C0 438.418 0.790176 440.326 2.1967 441.732C3.60322 443.139 5.51088 443.929 7.5 443.929C9.48912 443.929 11.3968 443.139 12.8033 441.732C14.2098 440.326 15 438.418 15 436.429V381.02C15 374.708 18.507 369.033 24.152 366.21L49.215 353.679L57.933 361.964C63.7922 367.548 71.578 370.66 79.672 370.652C87.7659 370.659 95.5513 367.547 101.411 361.964L110.128 353.68L118.3 357.766C114.452 363.923 112.268 371.143 112.268 378.706V436.431C112.268 438.42 113.058 440.328 114.465 441.734C115.871 443.141 117.779 443.931 119.768 443.931C121.757 443.931 123.665 443.141 125.071 441.734C126.478 440.328 127.268 438.42 127.268 436.431V378.706C127.268 368.41 133.769 359.128 143.446 355.609L192.098 337.918L212.351 368.299C213.622 370.212 215.303 371.818 217.271 373C219.24 374.183 221.448 374.912 223.734 375.134C226.019 375.365 228.327 375.083 230.49 374.31C232.653 373.537 234.617 372.291 236.238 370.664L248.594 358.308V436.432C248.594 438.421 249.384 440.329 250.791 441.735C252.197 443.142 254.105 443.932 256.094 443.932C258.083 443.932 259.991 443.142 261.397 441.735C262.804 440.329 263.594 438.421 263.594 436.432V358.308L275.95 370.664C277.387 372.106 279.094 373.25 280.975 374.031C282.855 374.811 284.871 375.212 286.907 375.211C287.42 375.211 287.936 375.186 288.453 375.135C290.739 374.913 292.947 374.184 294.916 373.002C296.885 371.819 298.566 370.213 299.837 368.3L320.091 337.92L368.742 355.611C378.418 359.13 384.92 368.412 384.92 378.708V436.433C384.92 438.422 385.71 440.33 387.117 441.736C388.523 443.143 390.431 443.933 392.42 443.933C394.409 443.933 396.317 443.143 397.723 441.736C399.13 440.33 399.92 438.422 399.92 436.433V378.708C399.92 368.28 395.777 358.5 388.827 351.267L390.68 350.738C392.549 350.204 395.099 349.473 397.659 348.218L416.808 367.367V436.433C416.808 438.422 417.598 440.33 419.005 441.736C420.411 443.143 422.319 443.933 424.308 443.933C426.297 443.933 428.205 443.143 429.611 441.736C431.018 440.33 431.808 438.422 431.808 436.433V367.367L450.824 348.351C451.835 348.865 452.897 349.299 454.015 349.618L484.991 358.468C492.061 360.488 497 367.035 497 374.389V436.433C497 438.422 497.79 440.33 499.197 441.736C500.603 443.143 502.511 443.933 504.5 443.933C506.489 443.933 508.397 443.143 509.803 441.736C511.21 440.33 512 438.422 512 436.433V374.389C512 360.371 502.588 347.892 489.112 344.041ZM48.115 330.794C34.086 325.746 27.049 319.016 24.045 315.341C26.093 309.987 27.421 303.855 28.32 297.382C32.456 307.299 39.383 315.765 48.115 321.805V330.794ZM91.08 351.092C84.683 357.17 74.662 357.169 68.267 351.091L61.292 344.463C62.4935 342.209 63.12 339.693 63.116 337.139V329.145C68.476 330.818 74.059 331.666 79.674 331.662C85.431 331.662 90.99 330.776 96.231 329.15L96.23 337.138C96.23 339.758 96.876 342.259 98.054 344.465L91.08 351.092ZM79.676 316.662C57.28 316.662 39.061 298.442 39.061 276.047C39.061 274.058 38.2708 272.15 36.8643 270.744C35.4578 269.337 33.5501 268.547 31.561 268.547C31.141 268.547 30.731 268.59 30.33 268.657L30.395 266.727C30.562 261.57 30.723 256.699 31.02 252.521C31.978 239.045 37.363 226.627 46.183 217.553C55.082 208.397 66.976 203.355 79.674 203.355C92.372 203.355 104.265 208.397 113.165 217.553C121.985 226.627 127.37 239.045 128.328 252.521C128.624 256.698 128.786 261.568 128.956 266.724L129.001 268.062C120.841 255.49 108.239 246.225 91.956 240.993C76.913 236.16 63.975 236.459 63.429 236.473C61.4654 236.527 59.6015 237.35 58.238 238.764L44.706 252.798C44.0223 253.507 43.485 254.344 43.1247 255.26C42.7644 256.177 42.5882 257.156 42.6061 258.14C42.6241 259.125 42.8358 260.097 43.2292 261C43.6226 261.903 44.19 262.719 44.899 263.403C45.608 264.087 46.4447 264.624 47.3614 264.984C48.2781 265.344 49.2567 265.521 50.2415 265.503C51.2262 265.485 52.1978 265.273 53.1008 264.88C54.0037 264.486 54.8203 263.919 55.504 263.21L66.764 251.533C76.461 252.007 107.658 255.635 119.791 282.352C116.738 302.04 99.816 316.662 79.676 316.662ZM111.229 330.819L111.23 321.874C120.051 315.806 126.928 307.315 131.031 297.425C131.93 303.883 133.257 310.001 135.301 315.343C132.314 318.983 125.244 325.773 111.229 330.819ZM183.403 209.145V190.537C183.403 189.408 183.148 188.293 182.657 187.276C177.831 177.282 175.384 166.678 175.384 155.758V139.72C175.384 108.481 200.799 83.0669 232.037 83.0669H336.806V155.759C336.806 166.679 334.359 177.283 329.533 187.277C329.042 188.294 328.787 189.409 328.787 190.538V211.893C328.787 232.204 320.622 251.043 305.796 264.94C303.96 266.661 302.038 268.288 300.038 269.815C299.994 269.845 299.952 269.878 299.909 269.909C286.02 280.454 269.008 285.579 251.242 284.428C213.201 281.965 183.403 248.897 183.403 209.145ZM225.632 360.056C225.58 360.108 225.459 360.231 225.214 360.205C225.137 360.201 225.062 360.177 224.995 360.138C224.929 360.098 224.873 360.042 224.833 359.976L201.508 324.988L209.014 317.101L244.399 341.288L225.632 360.056ZM256.095 331.113L215.48 303.351V289.351C225.989 295.032 237.756 298.585 250.271 299.395C252.248 299.523 254.213 299.586 256.172 299.586C270.513 299.586 284.315 296.158 296.71 289.651V303.351L256.095 331.113ZM287.357 359.978C287.317 360.044 287.261 360.1 287.195 360.139C287.128 360.179 287.053 360.203 286.976 360.207C286.731 360.238 286.611 360.109 286.558 360.058L267.791 341.291L303.176 317.103L310.683 324.99L287.357 359.978ZM424.308 353.65L407.288 336.631C407.585 335.282 407.753 333.805 407.752 332.176L407.751 329.011C413.1 330.776 418.697 331.671 424.33 331.661C429.936 331.664 435.511 330.821 440.866 329.16V332.18C440.866 333.676 441.054 335.142 441.408 336.551L424.308 353.65ZM452.591 305.196C444.642 312.91 434.141 316.984 423.054 316.642C401.35 315.991 383.693 296.874 383.693 274.029V260.008C383.693 258.844 383.422 257.695 382.901 256.654L378.268 247.388C376.566 243.974 375.679 240.212 375.674 236.397V235.95C375.674 217.976 390.297 203.354 408.27 203.354H472.943V234.504C472.937 239.564 471.759 244.553 469.502 249.082L465.716 256.654C465.195 257.695 464.924 258.844 464.924 260.008V276.046C464.924 287.126 460.544 297.478 452.591 305.196Z" fill="black"/>
<path d="M472.423 380.814C470.434 380.814 468.526 381.604 467.12 383.011C465.713 384.417 464.923 386.325 464.923 388.314V436.429C464.923 438.418 465.713 440.326 467.12 441.732C468.526 443.139 470.434 443.929 472.423 443.929C474.412 443.929 476.32 443.139 477.726 441.732C479.133 440.326 479.923 438.418 479.923 436.429V388.314C479.923 386.325 479.133 384.417 477.726 383.011C476.32 381.604 474.412 380.814 472.423 380.814ZM39.577 390.728C37.5879 390.728 35.6803 391.518 34.2737 392.925C32.8672 394.331 32.077 396.239 32.077 398.228V436.429C32.077 438.418 32.8672 440.326 34.2737 441.732C35.6803 443.139 37.5879 443.929 39.577 443.929C41.5662 443.929 43.4738 443.139 44.8803 441.732C46.2869 440.326 47.077 438.418 47.077 436.429V398.228C47.077 396.239 46.2869 394.331 44.8803 392.925C43.4738 391.518 41.5662 390.728 39.577 390.728ZM317.532 158.475C289.166 130.109 229.817 135.532 205.615 139.18C197.992 140.329 192.46 146.78 192.46 154.519V171.797C192.46 173.786 193.25 175.694 194.657 177.1C196.063 178.507 197.971 179.297 199.96 179.297C201.949 179.297 203.857 178.507 205.263 177.1C206.67 175.694 207.46 173.786 207.46 171.797V154.518C207.46 154.263 207.628 154.045 207.852 154.011C217.519 152.554 236.702 150.306 256.577 151.631C279.965 153.188 296.905 159.059 306.926 169.081C308.333 170.487 310.24 171.277 312.229 171.277C314.218 171.277 316.126 170.487 317.532 169.081C318.938 167.674 319.728 165.767 319.728 163.778C319.728 161.789 318.938 159.881 317.532 158.475ZM167.884 396.853C165.895 396.853 163.987 397.643 162.581 399.05C161.174 400.456 160.384 402.364 160.384 404.353V436.43C160.384 438.419 161.174 440.327 162.581 441.733C163.987 443.14 165.895 443.93 167.884 443.93C169.873 443.93 171.781 443.14 173.187 441.733C174.594 440.327 175.384 438.419 175.384 436.43V404.353C175.384 402.364 174.594 400.456 173.187 399.05C171.781 397.643 169.873 396.853 167.884 396.853ZM344.306 396.853C342.317 396.853 340.409 397.643 339.003 399.05C337.596 400.456 336.806 402.364 336.806 404.353V436.43C336.806 438.419 337.596 440.327 339.003 441.733C340.409 443.14 342.317 443.93 344.306 443.93C346.295 443.93 348.203 443.14 349.609 441.733C351.016 440.327 351.806 438.419 351.806 436.43V404.353C351.806 402.364 351.016 400.456 349.609 399.05C348.203 397.643 346.295 396.853 344.306 396.853Z" fill="black"/>
</svg>
