<svg width="394" height="512" viewBox="0 0 394 512" fill="none" xmlns="http://www.w3.org/2000/svg">
<path d="M145.497 258.351V184.491C145.497 181.044 143.721 177.805 140.9 175.925C134.11 171.433 130.14 163.911 130.14 155.867V79.2916C130.14 47.0108 156.466 20.6848 188.747 20.6848H205.253C237.534 20.6848 263.86 47.0108 263.86 79.2916V155.867C263.86 163.911 259.786 171.433 253.1 175.925C250.174 177.805 248.503 181.044 248.503 184.491V258.351C248.503 263.574 251.533 268.38 256.234 270.678C265.949 275.379 316.512 300.974 363.105 339.314C369.269 344.433 372.82 351.954 372.82 359.998V412.442C372.82 418.187 377.417 422.784 383.163 422.784C388.909 422.784 393.505 418.187 393.505 412.442V359.998C393.505 345.686 387.237 332.314 376.268 323.33C332.391 287.288 285.171 262.111 269.188 254.067V189.61C278.903 181.148 284.545 168.926 284.545 155.763V79.2916C284.545 35.5193 249.025 0 205.253 0H188.747C144.975 0 109.455 35.5193 109.455 79.2916V155.867C109.455 168.926 115.097 181.253 124.812 189.715V254.172C108.933 262.216 61.6089 287.393 17.7321 323.434C6.76292 332.419 0.494812 345.791 0.494812 360.103V412.546C0.494812 418.292 5.09142 422.888 10.8372 422.888C16.583 422.888 21.1796 418.292 21.1796 412.546V360.103C21.1796 352.059 24.7315 344.537 30.8951 339.418C77.4881 301.078 128.155 275.588 137.766 270.782C142.467 268.38 145.497 263.574 145.497 258.351Z" fill="black"/>
<path d="M222.281 269.215C216.536 269.215 211.939 273.812 211.939 279.558C211.939 283.945 210.059 287.811 207.133 290.527C206.507 290.945 205.88 291.363 205.357 291.989C202.955 293.556 200.03 294.601 197 294.601C188.747 294.601 181.957 287.915 181.957 279.558C181.957 273.812 177.36 269.215 171.614 269.215C165.868 269.215 161.272 273.812 161.272 279.558C161.272 288.02 164.197 295.75 169.211 301.914L161.585 479.197C161.481 482.227 162.734 485.256 165.033 487.345L189.374 509.284C191.359 511.06 193.866 512 196.269 512C198.776 512 201.283 511.06 203.164 509.284L227.818 487.032C230.116 484.943 231.37 482.018 231.266 478.884L223.326 303.69C229.176 297.317 232.728 288.855 232.728 279.662C232.624 273.812 227.923 269.215 222.281 269.215ZM196.06 487.659L182.27 475.227L189.165 314.45C191.672 314.973 194.179 315.286 196.791 315.286C198.88 315.286 200.865 315.077 202.85 314.764L210.059 474.914L196.06 487.659Z" fill="black"/>
</svg>
